<svg id="husky" enable-background="new 0 0 300 300" height="512" viewBox="0 0 300 300" width="512" xmlns="http://www.w3.org/2000/svg"><circle cx="122" cy="131.025" fill="#edebdc" r="92"/><path d="m177.969 84.155 41.926 29.947s32.017-32.017 5.389-75.905c-3.003-4.949-9.511-6.488-14.497-3.545-11.069 6.531-28.773 21.187-32.818 49.503z" fill="#6b4f5b"/><path d="m219.895 118.103c-.812 0-1.625-.246-2.324-.746l-41.926-29.949c-1.215-.867-1.848-2.34-1.637-3.82 4.328-30.281 23.625-45.816 34.742-52.383 6.902-4.055 15.844-1.855 19.953 4.918 14.562 24 12.199 44.676 7.652 57.793-4.922 14.199-13.277 22.664-13.633 23.016-.773.773-1.796 1.171-2.827 1.171zm-37.586-35.766 36.973 26.41c6.473-8.031 23.379-34.203 2.586-68.477-1.855-3.051-5.906-4.02-9.051-2.176-9.587 5.661-26.016 18.833-30.508 44.243z" fill="#4c241d"/><path d="m193.273 78.592 19.761 14.115s15.091-15.091 2.54-35.776c-1.415-2.333-4.483-3.058-6.833-1.671-5.217 3.078-13.561 9.986-15.468 23.332z" fill="#e5efef"/><path d="m213.035 96.709c-.812 0-1.625-.246-2.324-.746l-19.762-14.117c-1.215-.867-1.848-2.34-1.637-3.82 2.168-15.156 11.828-22.926 17.398-26.211 4.234-2.5 9.75-1.137 12.285 3.043 11.215 18.484 2.855 34.691-3.133 40.68-.772.772-1.796 1.171-2.827 1.171zm-15.375-19.899 14.617 10.441c3.125-4.656 7.863-15.082-.121-28.246-.273-.449-.91-.59-1.379-.301-4.039 2.38-10.839 7.797-13.117 18.106z" fill="#4c241d"/><path d="m124.064 84.155-41.926 29.947s-32.017-32.017-5.389-75.905c3.003-4.949 9.511-6.488 14.497-3.545 11.068 6.531 28.773 21.187 32.818 49.503z" fill="#6b4f5b"/><path d="m82.137 118.103c-1.031 0-2.055-.398-2.828-1.172-.344-.344-33.914-34.773-5.977-80.809 4.109-6.773 13.059-8.984 19.945-4.918 11.121 6.566 30.422 22.105 34.746 52.383.211 1.48-.422 2.953-1.637 3.82l-41.926 29.949c-.698.501-1.511.747-2.323.747zm3.648-80.945c-2.23 0-4.398 1.109-5.613 3.113-20.793 34.266-3.898 60.434 2.582 68.477l36.969-26.41c-4.488-25.406-20.922-38.582-30.512-44.242-1.074-.637-2.258-.938-3.426-.938z" fill="#4c241d"/><path d="m106.727 78.592-19.761 14.115s-15.091-15.091-2.54-35.776c1.415-2.333 4.483-3.058 6.833-1.671 5.217 3.078 13.561 9.986 15.468 23.332z" fill="#e5efef"/><path d="m86.965 96.709c-1.031 0-2.055-.398-2.828-1.172-5.988-5.988-14.348-22.195-3.129-40.68 2.531-4.18 8.043-5.543 12.285-3.043 5.566 3.285 15.227 11.055 17.395 26.211.211 1.48-.422 2.953-1.637 3.82l-19.762 14.117c-.699.5-1.512.747-2.324.747zm1.719-38.153c-.336 0-.664.16-.836.449-7.945 13.094-3.215 23.562-.109 28.234l14.602-10.43c-2.277-10.309-9.078-15.727-13.113-18.105-.169-.101-.361-.148-.544-.148z" fill="#4c241d"/><path d="m240.858 141.054c-11.979-77.863-89.842-71.873-89.842-71.873s-77.863-5.989-89.842 71.873 11.979 125.778 11.979 125.778h77.863 77.863c0 .001 23.958-47.915 11.979-125.778z" fill="#6b4f5b"/><path d="m228.879 270.834h-155.727c-1.516 0-2.898-.855-3.578-2.211-1-2.004-24.387-49.957-12.352-128.176 12.012-78.086 88.328-75.574 93.793-75.273 5.496-.293 81.781-2.809 93.797 75.273 12.031 78.219-11.355 126.172-12.355 128.176-.68 1.355-2.062 2.211-3.578 2.211zm-153.141-8h150.551c4.32-10.188 20.824-54.824 10.617-121.168-11.289-73.363-82.578-68.734-85.582-68.496-.203.016-.414.016-.609 0-3.047-.219-74.328-4.699-85.586 68.496-10.234 66.511 6.281 111.011 10.609 121.168z" fill="#4c241d"/><path d="m241.885 148.336c-13.111-.459-34.716-6.611-53.885-37.229 0 0-13.781-18.343-25.266-2.866-3.262 4.396-4.734 9.869-4.734 15.343v29.449c0 3.308-2.686 5.99-6 5.99s-6-2.682-6-5.99v-29.449c0-5.474-1.472-10.947-4.734-15.343-11.485-15.477-25.266 2.866-25.266 2.866-20.165 32.208-43.025 37.346-55.857 37.258-1.707 13.277-2.357 25.599-2.303 36.914l83.473 72.297c6.173 5.346 15.301 5.464 21.609.278l81.179-66.736c.348-12.876-.208-27.173-2.216-42.782z" fill="#fff"/><path d="m152.281 265.681c-4.844 0-9.68-1.695-13.59-5.082l-83.469-72.297c-.875-.754-1.379-1.852-1.383-3.004-.059-12.32.727-24.918 2.336-37.445.258-1.996 1.957-3.488 3.969-3.488.098-.012.211 0 .316 0 11.34 0 32.926-4.672 52.148-35.379 1.016-1.375 8.492-10.953 18.246-10.953h.047c5.168.016 9.734 2.648 13.574 7.824 3.613 4.871 5.523 11 5.523 17.727v29.449c0 1.098.898 1.988 2 1.988s2-.891 2-1.988v-29.449c0-6.727 1.91-12.855 5.52-17.727 3.844-5.176 8.41-7.809 13.578-7.824h.047c9.754 0 17.23 9.578 18.055 10.672 17.957 28.656 37.531 35.168 50.828 35.637 1.957.066 3.578 1.543 3.828 3.484 1.871 14.574 2.629 29.176 2.246 43.402-.031 1.156-.566 2.246-1.461 2.98l-81.18 66.734c-3.846 3.165-8.514 4.739-13.178 4.739zm-90.445-82.23 82.094 71.102c4.715 4.078 11.629 4.176 16.453.211l79.762-65.57c.242-12.176-.371-24.629-1.824-37.086-15.027-1.484-35.508-9.805-53.711-38.879-1.387-1.797-6.559-7.195-11.465-7.195-.016 0-.027 0-.039 0-2.535.016-4.879 1.516-7.16 4.59-2.582 3.48-3.945 7.965-3.945 12.961v29.449c0 5.508-4.484 9.988-10 9.988s-10-4.48-10-9.988v-29.449c0-4.996-1.363-9.48-3.949-12.961-2.277-3.074-4.621-4.574-7.156-4.59-.012 0-.027 0-.039 0-4.906 0-10.082 5.398-11.664 7.484-19.43 31.062-41.902 37.875-55.492 38.746-1.217 10.441-1.842 20.905-1.865 31.187z" fill="#4c241d"/><circle cx="177.969" cy="126.081" fill="#4c241d" r="5.989"/><circle cx="124.064" cy="126.081" fill="#4c241d" r="5.989"/><path d="m169.036 157.942c0 5.25-7.296 16.296-16.296 16.296s-16.296-11.046-16.296-16.296 7.296-9.506 16.296-9.506 16.296 4.256 16.296 9.506z" fill="#c1dbdc"/><g fill="#4c241d"><path d="m152.738 178.24c-11.723 0-20.293-13.348-20.293-20.297 0-7.574 8.914-13.508 20.293-13.508 11.383 0 20.297 5.934 20.297 13.508 0 6.949-8.57 20.297-20.297 20.297zm0-25.805c-7.391 0-12.293 3.316-12.293 5.508 0 3.445 5.844 12.297 12.293 12.297s12.297-8.852 12.297-12.297c0-2.192-4.906-5.508-12.297-5.508z"/><path d="m167.719 52.537c-1.02 0-2.043-.391-2.824-1.168l-11.332-11.293c-1.562-1.559-1.57-4.09-.008-5.656s4.094-1.566 5.656-.008l11.332 11.293c1.562 1.559 1.57 4.09.008 5.656-.781.785-1.805 1.176-2.832 1.176z"/><path d="m156.406 52.556c-1.02 0-2.043-.387-2.824-1.168-1.562-1.559-1.57-4.09-.008-5.656l11.293-11.336c1.559-1.562 4.09-1.574 5.656-.008 1.562 1.559 1.57 4.09.008 5.656l-11.293 11.336c-.781.786-1.804 1.176-2.832 1.176z"/><path d="m46 59.025c-6.617 0-12-5.383-12-12s5.383-12 12-12 12 5.383 12 12-5.383 12-12 12zm0-16c-2.207 0-4 1.793-4 4s1.793 4 4 4 4-1.793 4-4-1.793-4-4-4z"/><path d="m258 119.025c-6.617 0-12-5.383-12-12s5.383-12 12-12 12 5.383 12 12-5.383 12-12 12zm0-16c-2.207 0-4 1.793-4 4s1.793 4 4 4 4-1.793 4-4-1.793-4-4-4z"/><circle cx="46" cy="95.025" r="4.292"/><circle cx="126" cy="35.025" r="4.292"/><circle cx="262" cy="47.025" r="4.292"/></g></svg>