<svg id="Capa_1" enable-background="new 0 0 512 512" height="512" viewBox="0 0 512 512" width="512" xmlns="http://www.w3.org/2000/svg"><g><g><g><g><g><g><path d="m116.686 470.809c-70.236-45.645-116.686-124.802-116.686-214.809 0-141.385 114.615-256 256-256s256 114.615 256 256c0 90.007-46.45 169.164-116.686 214.809z" fill="#fe6a16"/></g></g></g></g></g><path d="m286.009 470.809h109.306c70.235-45.645 116.685-124.802 116.685-214.809 0-22.165-2.817-43.673-8.113-64.184l-131.029-131.029z" fill="#ea3e03"/><g><path d="m256 512c51.378 0 99.221-15.135 139.314-41.191l-7.815-77.441-9.753-11.703 4.437-40.976-16.196-160.488c-3.571-35.387-33.36-62.321-68.927-62.321h-82.12c-35.567 0-65.356 26.934-68.927 62.321l-16.196 160.489.68 37.908-5.999 14.79-7.813 77.421c40.094 26.056 87.937 41.191 139.315 41.191z" fill="#fff"/></g><g><path d="m387.499 393.368-9.753-11.703 4.437-40.976-16.196-160.488c-3.571-35.387-33.36-62.321-68.927-62.321h-40.94v394.119c51.333-.024 99.132-15.155 139.194-41.19z" fill="#e9edf5"/></g><g><path d="m268.407 288.706h-24.815c-18.97 0-34.348-15.378-34.348-34.348v-22.498c0-25.822 20.933-46.755 46.755-46.755 25.822 0 46.755 20.933 46.755 46.755v22.498c.001 18.97-15.377 34.348-34.347 34.348z" fill="#dce1eb"/></g><g><path d="m256.12 185.108v103.599h12.287c18.97 0 34.348-15.378 34.348-34.348v-22.499c0-25.782-20.868-46.687-46.635-46.752z" fill="#bec3d2"/></g><g><path d="m268.407 288.706c8.306 0 15.924-2.948 21.863-7.856-8.538-9.196-20.732-14.95-34.27-14.95-13.538 0-25.732 5.754-34.27 14.95 5.94 4.907 13.557 7.856 21.863 7.856z" fill="#bec3d2"/></g><g><path d="m290.27 280.85c-8.513-9.168-20.66-14.912-34.15-14.947v22.802h12.287c8.307.001 15.924-2.947 21.863-7.855z" fill="#9196aa"/></g><g><path d="m270.424 198.42h-28.849c-11.891 0-20.001 12.038-15.533 23.058l1.223 3.017c2.728 6.729 7.646 12.12 13.734 15.487v28.378h30v-28.378c6.088-3.367 11.006-8.758 13.734-15.487l1.223-3.017c4.469-11.019-3.64-23.058-15.532-23.058z" fill="#707789"/></g><g><path d="m270.424 198.42h-14.304v69.94h14.88v-28.378c6.088-3.367 11.006-8.758 13.734-15.487l1.223-3.017c4.468-11.019-3.641-23.058-15.533-23.058z" fill="#555a66"/></g><g><g><path d="m204.525 198.044c-6.837 0-12.38-5.543-12.38-12.38v-7.819c0-6.837 5.543-12.38 12.38-12.38 6.837 0 12.38 5.543 12.38 12.38v7.819c0 6.837-5.543 12.38-12.38 12.38z" fill="#707789"/></g><g><path d="m307.475 198.044c-6.837 0-12.38-5.543-12.38-12.38v-7.819c0-6.837 5.543-12.38 12.38-12.38 6.837 0 12.38 5.543 12.38 12.38v7.819c0 6.837-5.543 12.38-12.38 12.38z" fill="#555a66"/></g></g><g><path d="m139.142 60.787 80.057 65.914-74.44 65.926z" fill="#fff"/></g><g><path d="m165.775 91.775-26.633-30.988s-24.827 56.405 5.617 131.84l19.741-21.543c20.448-22.299 20.995-56.364 1.275-79.309z" fill="#dce1eb"/></g><g><path d="m372.858 60.787-80.057 65.914 74.44 65.926z" fill="#e9edf5"/></g><g><path d="m346.225 91.775 26.633-30.988s24.827 56.405-5.617 131.84l-19.741-21.543c-20.448-22.299-20.995-56.364-1.275-79.309z" fill="#bec3d2"/></g><g><path d="m129.817 340.69-5.316 52.679c84.194 34.863 178.804 34.863 262.998 0l-5.316-52.679c-81.07 31.996-171.296 31.996-252.366 0z" fill="#7584f2"/></g><g><path d="m382.183 340.69c-40.497 15.983-83.278 23.981-126.062 23.996v54.828c44.661-.016 89.319-8.73 131.379-26.146z" fill="#606aea"/></g></g></svg>